<?xml version="1.0" encoding="utf-8"?>
<!-- Generator: Adobe Illustrator 15.0.0, SVG Export Plug-In . SVG Version: 6.00 Build 0)  -->
<!DOCTYPE svg PUBLIC "-//W3C//DTD SVG 1.1//EN" "http://www.w3.org/Graphics/SVG/1.1/DTD/svg11.dtd">
<svg version="1.1" id="Layer_1" xmlns="http://www.w3.org/2000/svg" xmlns:xlink="http://www.w3.org/1999/xlink" x="0px" y="0px"
	 width="102px" height="30px" viewBox="-8.5 -4 102 30" enable-background="new -8.5 -4 102 30" xml:space="preserve">
<g>
	<path fill="#3D474E" d="M13.608,22h-2.453l-3.125-7.43H-2.153L-5.238,22h-2.785L1.808,0h2.457L13.608,22z M7.255,12.601
		L3.078,2.549l-4.274,10.052H7.255z"/>
	<path fill="#3D474E" d="M30.065,14.197H15.438c0.17,1.64,0.865,2.993,2.084,4.059c1.219,1.066,2.657,1.59,4.316,1.571
		c2.567-0.037,4.406-1.229,5.51-3.571h2.317c-0.61,1.753-1.637,3.141-3.087,4.172c-1.446,1.029-3.054,1.553-4.827,1.569
		c-2.229,0.04-4.199-0.774-5.917-2.441c-1.712-1.665-2.591-3.653-2.627-5.961c-0.058-2.436,0.804-4.539,2.586-6.298
		c1.778-1.762,3.881-2.576,6.298-2.442c2.173,0.132,4.059,1.029,5.659,2.685c1.542,1.639,2.312,3.466,2.312,5.485L30.065,14.197
		L30.065,14.197z M27.921,12.197c-0.303-1.523-1.018-2.757-2.141-3.699s-2.465-1.426-4.027-1.444c-1.562-0.021-2.93,0.447-4.1,1.398
		c-1.171,0.955-1.91,2.203-2.214,3.744L27.921,12.197L27.921,12.197z"/>
	<path fill="#3D474E" d="M49.183,16.798l-0.229,0.49c-1.714,3.16-4.362,4.723-7.942,4.682c-2.362-0.021-4.402-0.845-6.116-2.486
		c-1.715-1.636-2.583-3.627-2.605-5.968c-0.035-2.364,0.809-4.389,2.533-6.074c1.722-1.687,3.784-2.55,6.185-2.587
		c1.712-0.021,3.312,0.426,4.797,1.343c1.411,0.873,2.42,1.978,3.03,3.313l0.313,0.715h-2.461c-1.22-2.116-3.09-3.203-5.61-3.259
		C39.4,6.931,37.891,7.539,36.554,8.8c-1.394,1.297-2.086,2.834-2.086,4.608c0,1.775,0.644,3.301,1.944,4.568
		c1.299,1.268,2.835,1.894,4.609,1.875c2.538-0.037,4.438-1.058,5.697-3.058L49.183,16.798L49.183,16.798z"/>
	<path fill="#3D474E" d="M76.478,7.169c-1.01,0.04-1.828,0.314-2.454,0.83c-0.635,0.513-1.059,0.961-1.289,1.341
		c-0.362,0.631-0.543,1.468-0.543,2.515v9.745h-2.288V5.312h2.026v2.313c0.458-0.874,1.133-1.552,2.032-2.025
		c0.814-0.44,1.656-0.64,2.513-0.603v2.171L76.478,7.169L76.478,7.169z"/>
	<path fill="#3D474E" d="M93.022,14.197H78.391c0.176,1.64,0.868,2.993,2.087,4.059c1.221,1.066,2.655,1.59,4.314,1.571
		c2.569-0.037,4.408-1.229,5.514-3.571h2.312c-0.605,1.753-1.635,3.141-3.082,4.172c-1.449,1.029-3.056,1.553-4.828,1.569
		c-2.23,0.04-4.2-0.774-5.914-2.441c-1.714-1.665-2.594-3.653-2.63-5.961c-0.057-2.436,0.807-4.539,2.587-6.298
		c1.782-1.762,3.881-2.576,6.301-2.442c2.169,0.132,4.06,1.029,5.656,2.685c1.545,1.639,2.315,3.466,2.315,5.485V14.197z
		 M90.881,12.197c-0.306-1.523-1.021-2.757-2.143-3.699c-1.125-0.942-2.467-1.426-4.029-1.444c-1.559-0.021-2.929,0.447-4.098,1.398
		c-1.174,0.955-1.911,2.203-2.219,3.744L90.881,12.197L90.881,12.197z"/>
	<path fill="#DA4B4B" d="M65.348,12.441c-0.201-1.362-0.794-2.556-1.771-3.577c-1.176-1.225-2.597-1.837-4.252-1.837
		c-1.738-0.021-3.218,0.594-4.439,1.822c-1.015,1.027-1.616,2.221-1.802,3.593h-2.178c0.217-1.939,1.043-3.631,2.485-5.083
		c1.698-1.707,3.714-2.521,6.057-2.447c2.27,0.078,4.192,0.95,5.771,2.613c1.343,1.418,2.116,3.054,2.32,4.917H65.348z
		 M50.896,14.441c0.191,1.884,0.963,3.537,2.308,4.958c1.574,1.657,3.493,2.514,5.761,2.57c2.345,0.079,4.367-0.737,6.072-2.442
		c1.461-1.461,2.296-3.155,2.504-5.086h-2.188c-0.197,1.322-0.787,2.504-1.775,3.552c-1.271,1.337-2.804,1.96-4.598,1.869
		c-1.682-0.062-3.103-0.733-4.268-2.027c-0.902-1-1.443-2.134-1.626-3.394H50.896z"/>
	<circle fill="#3D474E" cx="59.22" cy="13.443" r="2.238"/>
</g>
</svg>
