<?xml version="1.0" encoding="utf-8"?>
<!-- Generator: Adobe Illustrator 15.0.0, SVG Export Plug-In . SVG Version: 6.00 Build 0)  -->
<!DOCTYPE svg PUBLIC "-//W3C//DTD SVG 1.1//EN" "http://www.w3.org/Graphics/SVG/1.1/DTD/svg11.dtd">
<svg version="1.1" id="Layer_1" xmlns="http://www.w3.org/2000/svg" xmlns:xlink="http://www.w3.org/1999/xlink" x="0px" y="0px"
	 width="30px" height="60px" viewBox="-4 -8 30 60" enable-background="new -4 -8 30 60" xml:space="preserve">
<path fill="#777777" d="M22.026,5.232c-0.367-2.395-1.432-4.494-3.195-6.286c-2.111-2.15-4.665-3.224-7.657-3.224
	C8.043-4.314,5.379-3.24,3.176-1.076c-1.825,1.8-2.907,3.899-3.24,6.308h-3.921c0.388-3.407,1.879-6.386,4.479-8.935
	c3.056-2.994,6.693-4.424,10.91-4.289c4.085,0.13,7.549,1.664,10.397,4.588c2.414,2.486,3.809,5.365,4.172,8.635H22.026z M-4,8.75
	c0.345,3.308,1.732,6.211,4.158,8.705c2.833,2.912,6.288,4.416,10.372,4.519c4.221,0.133,7.863-1.297,10.937-4.291
	c2.631-2.571,4.135-5.544,4.512-8.933h-3.944c-0.351,2.319-1.421,4.4-3.207,6.233c-2.285,2.35-5.045,3.442-8.275,3.275
	c-3.027-0.102-5.59-1.281-7.686-3.552c-1.625-1.76-2.604-3.746-2.927-5.956H-4z"/>
<ellipse fill="#777777" cx="10.989" cy="6.99" rx="3.224" ry="3.144"/>
<path fill="#DA4B4B" d="M22.026,35.213c-0.367-2.396-1.432-4.494-3.195-6.284c-2.111-2.149-4.665-3.226-7.657-3.226
	c-3.131-0.034-5.795,1.039-7.999,3.204c-1.825,1.802-2.907,3.896-3.239,6.309h-3.922c0.388-3.407,1.88-6.388,4.479-8.937
	c3.056-2.993,6.693-4.423,10.911-4.288c4.084,0.131,7.548,1.665,10.396,4.588c2.416,2.485,3.809,5.366,4.172,8.636L22.026,35.213
	L22.026,35.213z M-4,38.729c0.345,3.309,1.732,6.212,4.158,8.705c2.833,2.911,6.288,4.416,10.372,4.519
	c4.221,0.133,7.863-1.298,10.937-4.288c2.631-2.572,4.135-5.546,4.512-8.936h-3.944c-0.351,2.318-1.421,4.4-3.207,6.233
	c-2.285,2.351-5.045,3.44-8.274,3.273c-3.028-0.102-5.591-1.28-7.687-3.551c-1.625-1.76-2.604-3.746-2.927-5.956H-4z"/>
<ellipse fill="#3D474E" cx="10.989" cy="36.969" rx="3.224" ry="3.143"/>
</svg>
