<?xml version="1.0" encoding="utf-8"?>
<!-- Generator: Adobe Illustrator 15.0.0, SVG Export Plug-In . SVG Version: 6.00 Build 0)  -->
<!DOCTYPE svg PUBLIC "-//W3C//DTD SVG 1.1//EN" "http://www.w3.org/Graphics/SVG/1.1/DTD/svg11.dtd">
<svg version="1.1" id="Layer_1" xmlns="http://www.w3.org/2000/svg" xmlns:xlink="http://www.w3.org/1999/xlink" x="0px" y="0px"
	 width="300px" height="68px" viewBox="-25 -6 300 68" enable-background="new -25 -6 300 68" xml:space="preserve">
<g>
	<path fill="#3D474E" d="M39.216,60.059h-7.278L22.66,38.003H-7.578l-9.153,22.056H-25L4.182-5.257h7.298L39.216,60.059z
		 M20.359,32.153L7.96,2.306L-4.727,32.153H20.359z"/>
	<path fill="#3D474E" d="M88.081,38.088H44.649c0.506,4.869,2.571,8.887,6.194,12.051c3.615,3.163,7.888,4.723,12.809,4.662
		c7.63-0.109,13.09-3.641,16.373-10.602h6.873c-1.812,5.205-4.868,9.331-9.166,12.39c-4.298,3.051-9.076,4.6-14.334,4.664
		c-6.617,0.112-12.472-2.3-17.559-7.249c-5.089-4.95-7.696-10.849-7.805-17.696c-0.171-7.231,2.392-13.472,7.677-18.701
		c5.287-5.234,11.521-7.649,18.705-7.251c6.445,0.388,12.048,3.05,16.799,7.972c4.578,4.862,6.868,10.294,6.868,16.29L88.081,38.088
		L88.081,38.088z M81.722,32.153c-0.908-4.525-3.023-8.188-6.364-10.985c-3.336-2.798-7.326-4.231-11.961-4.282
		c-4.639-0.059-8.696,1.325-12.174,4.151c-3.475,2.835-5.669,6.536-6.573,11.117L81.722,32.153L81.722,32.153z"/>
	<path fill="#3D474E" d="M144.844,45.813l-0.684,1.445c-5.09,9.388-12.948,14.029-23.582,13.907
		c-7.01-0.06-13.063-2.512-18.151-7.381c-5.094-4.858-7.664-10.775-7.724-17.722c-0.112-7.012,2.391-13.024,7.511-18.03
		c5.114-5.008,11.239-7.571,18.364-7.676c5.087-0.062,9.837,1.267,14.256,3.986c4.182,2.593,7.177,5.877,8.99,9.837l0.926,2.119
		h-7.311c-3.623-6.273-9.173-9.501-16.652-9.671c-4.987-0.109-9.463,1.703-13.431,5.445c-4.14,3.85-6.207,8.41-6.207,13.68
		c0,5.271,1.925,9.804,5.782,13.571c3.853,3.77,8.417,5.618,13.685,5.568c7.539-0.119,13.175-3.142,16.917-9.079L144.844,45.813
		L144.844,45.813z"/>
	<path fill="#3D474E" d="M225.88,17.217c-2.999,0.119-5.425,0.938-7.295,2.47c-1.874,1.521-3.136,2.851-3.817,3.979
		c-1.073,1.871-1.611,4.361-1.611,7.476v28.917h-6.786V11.709h6.02v6.869c1.359-2.599,3.369-4.61,6.033-6.021
		c2.421-1.303,4.914-1.894,7.457-1.787V17.217z"/>
	<path fill="#3D474E" d="M275,38.088h-43.433c0.499,4.869,2.577,8.887,6.193,12.051c3.616,3.163,7.888,4.723,12.813,4.662
		c7.629-0.109,13.083-3.641,16.365-10.602h6.869c-1.804,5.205-4.859,9.331-9.155,12.39c-4.301,3.051-9.075,4.6-14.331,4.664
		c-6.626,0.112-12.479-2.3-17.563-7.249c-5.1-4.95-7.695-10.849-7.813-17.696c-0.162-7.231,2.39-13.472,7.682-18.701
		c5.282-5.234,11.526-7.649,18.706-7.251c6.445,0.388,12.047,3.05,16.803,7.972c4.573,4.862,6.864,10.294,6.864,16.29V38.088
		L275,38.088z M268.635,32.153c-0.906-4.525-3.023-8.188-6.358-10.985c-3.337-2.798-7.326-4.231-11.957-4.282
		c-4.642-0.059-8.702,1.325-12.184,4.151c-3.477,2.835-5.667,6.536-6.568,11.117L268.635,32.153L268.635,32.153z"/>
	<path fill="#DA4B4B" d="M192.831,32.878c-0.608-4.05-2.361-7.6-5.262-10.627c-3.483-3.633-7.697-5.454-12.63-5.454
		c-5.154-0.06-9.549,1.756-13.181,5.413c-3.006,3.044-4.789,6.595-5.34,10.67h-6.464c0.636-5.762,3.102-10.793,7.381-15.104
		c5.04-5.061,11.032-7.48,17.986-7.25c6.733,0.219,12.438,2.811,17.132,7.755c3.991,4.204,6.287,9.072,6.887,14.6h-6.51V32.878z
		 M149.932,38.815c0.57,5.591,2.859,10.498,6.862,14.715c4.66,4.921,10.359,7.47,17.091,7.635c6.958,0.228,12.961-2.19,18.021-7.255
		c4.338-4.333,6.823-9.37,7.439-15.095h-6.503c-0.574,3.921-2.337,7.435-5.273,10.536c-3.77,3.97-8.319,5.823-13.646,5.539
		c-4.987-0.175-9.208-2.175-12.667-6.011c-2.678-2.974-4.291-6.324-4.827-10.065L149.932,38.815L149.932,38.815z"/>
	<path fill="#3D474E" d="M174.635,29.198c3.677,0,6.651,2.976,6.651,6.65c0,3.668-2.975,6.643-6.651,6.643
		c-3.666,0-6.642-2.975-6.642-6.643C167.993,32.174,170.969,29.198,174.635,29.198z"/>
</g>
</svg>
